# xmcd
#
# Track frame offsets:
# 150
# 13585
# 28945
# 44850
# 60505
# 67705
# 82550
# 90662
# 106852
# 117587
# 130107
# 168275
# 177410
# 190085
# 205062
# 220747
# 236432
# 251615
#
# Disc length: 3562 seconds
#
#
# Revision: 3
# Processed by: cddbd v1.5.1PL2 Copyright (c) Steve Scherf et al.
# Submitted via: FreeRIP 2.945 
#
DISCID=ea0de812
DTITLE=Billie Holiday - Billie's Blues
DYEAR=1991
DGENRE=Blues
TTITLE0=My Man
TTITLE1=Lover Man
TTITLE2=I Cover The Waterfront
TTITLE3=Don't Explain
TTITLE4=Them There Eyes
TTITLE5=They Can't Take That Away From Me
TTITLE6=Swing Brother, Swing
TTITLE7=Do Nothin' Till You Hear From Me
TTITLE8=Lover Come Back To Me
TTITLE9=The Same Old Story
TTITLE10=Fine And Mellow
TTITLE11=What A Little Moonlight Can Do
TTITLE12=Fooling Myself
TTITLE13=Easy To Remember
TTITLE14=You've Changed
TTITLE15=Ghost Of A Chance
TTITLE16=Willow Weep For Me
TTITLE17=Stormy Weather
EXTD=
EXTT0=
EXTT1=
EXTT2=
EXTT3=
EXTT4=
EXTT5=
EXTT6=
EXTT7=
EXTT8=
EXTT9=
EXTT10=
EXTT11=
EXTT12=
EXTT13=
EXTT14=
EXTT15=
EXTT16=
EXTT17=
PLAYORDER=
